<?xml version="1.0" encoding="UTF-8" standalone="no"?>
<!-- Generator: Adobe Illustrator 18.0.0, SVG Export Plug-In . SVG Version: 6.00 Build 0)  -->

<svg
   version="1.1"
   id="Capa_1"
   x="0px"
   y="0px"
   viewBox="0 0 433.632 433.632"
   style="enable-background:new 0 0 433.632 433.632;"
   xml:space="preserve"
   sodipodi:docname="virtual-keyboard-icon.svg"
   inkscape:version="1.1 (c68e22c387, 2021-05-23)"
   xmlns:inkscape="http://www.inkscape.org/namespaces/inkscape"
   xmlns:sodipodi="http://sodipodi.sourceforge.net/DTD/sodipodi-0.dtd"
   xmlns="http://www.w3.org/2000/svg"
   xmlns:svg="http://www.w3.org/2000/svg"><defs
   id="defs47" /><sodipodi:namedview
   id="namedview45"
   pagecolor="#ffffff"
   bordercolor="#666666"
   borderopacity="1.0"
   inkscape:pageshadow="2"
   inkscape:pageopacity="0.0"
   inkscape:pagecheckerboard="0"
   showgrid="false"
   inkscape:zoom="1.7364955"
   inkscape:cx="216.52806"
   inkscape:cy="216.81599"
   inkscape:window-width="1920"
   inkscape:window-height="1017"
   inkscape:window-x="-8"
   inkscape:window-y="-8"
   inkscape:window-maximized="1"
   inkscape:current-layer="Capa_1" />
<g
   id="g12"
   style="fill:#280b0b">
	<path
   d="M411.999,130.626H73.567v-5.002c0-5.375,4.373-9.749,9.749-9.749h282.935c13.646,0,24.749-11.103,24.749-24.749   c0-13.647-11.103-24.75-24.749-24.75h-68.445c-4.143,0-7.5,3.358-7.5,7.5s3.357,7.5,7.5,7.5h68.445c5.376,0,9.749,4.374,9.749,9.75   c0,5.375-4.373,9.749-9.749,9.749H83.316c-13.646,0-24.749,11.103-24.749,24.749v5.002H21.634C9.705,130.626,0,140.332,0,152.26   v193.362c0,11.929,9.705,21.633,21.634,21.633h390.365c11.929,0,21.633-9.705,21.633-21.633V152.26   C433.632,140.332,423.928,130.626,411.999,130.626z M418.632,345.622c0,3.658-2.976,6.633-6.633,6.633H21.634   c-3.658,0-6.634-2.976-6.634-6.633V152.26c0-3.658,2.976-6.634,6.634-6.634h390.365c3.657,0,6.633,2.976,6.633,6.634V345.622z"
   id="path2"
   style="fill:#280b0b" />
	<path
   d="M401.132,155.627H32.5c-4.143,0-7.5,3.358-7.5,7.5v171.628c0,4.142,3.357,7.5,7.5,7.5h368.632c4.143,0,7.5-3.358,7.5-7.5   V163.127C408.632,158.985,405.274,155.627,401.132,155.627z M285.755,170.627h46.438v27.875h-46.438V170.627z M101.438,256.443   h46.438v27.937h-46.438V256.443z M70.72,241.443v-27.941h46.438v27.941H70.72z M132.158,241.443v-27.941h46.438v27.941H132.158z    M162.877,256.443h46.439v27.937h-46.439V256.443z M193.597,241.443v-27.941h46.438v27.941H193.597z M224.316,256.443h46.438   v27.937h-46.438V256.443z M255.035,241.443v-27.941h46.438v27.941H255.035z M285.755,256.443h46.438v27.937h-46.438V256.443z    M316.474,241.443v-27.941h32.605v27.941H316.474z M224.316,170.627h46.438v27.875h-46.438V170.627z M162.877,170.627h46.439   v27.875h-46.439V170.627z M101.438,170.627h46.438v27.875h-46.438V170.627z M40,170.627h46.438v27.875H40V170.627z M40,213.502   h15.72v27.941H40V213.502z M40,256.443h46.438v27.937H40V256.443z M55.72,327.255H40V299.38h15.72V327.255z M117.158,327.255H70.72   V299.38h46.438V327.255z M178.597,327.255h-46.438V299.38h46.438V327.255z M240.035,327.255h-46.438V299.38h46.438V327.255z    M301.474,327.255h-46.438V299.38h46.438V327.255z M362.912,327.255h-46.438V299.38h46.438V327.255z M393.632,327.255h-15.72   V299.38h15.72V327.255z M393.632,284.38h-46.438v-27.937h9.386c4.143,0,7.5-3.358,7.5-7.5v-35.441h29.553V284.38z M393.632,198.502   h-46.438v-27.875h46.438V198.502z"
   id="path4"
   style="fill:#280b0b" />
	<path
   d="M270.119,76.745c-0.022-0.052-0.035-0.082-0.043-0.102C270.114,76.733,270.25,77.053,270.119,76.745z"
   id="path6"
   style="fill:#280b0b" />
	<path
   d="M282.35,79.185c4.21-4.337,1.792-11.93-4.298-12.735c-5.578-0.738-10.16,5.034-7.932,10.295   C272.181,81.619,278.56,82.859,282.35,79.185z"
   id="path8"
   style="fill:#280b0b" />
	<path
   d="M270.076,76.643C270.065,76.616,270.061,76.608,270.076,76.643L270.076,76.643z"
   id="path10"
   style="fill:#280b0b" />
</g>
<g
   id="g14">
</g>
<g
   id="g16">
</g>
<g
   id="g18">
</g>
<g
   id="g20">
</g>
<g
   id="g22">
</g>
<g
   id="g24">
</g>
<g
   id="g26">
</g>
<g
   id="g28">
</g>
<g
   id="g30">
</g>
<g
   id="g32">
</g>
<g
   id="g34">
</g>
<g
   id="g36">
</g>
<g
   id="g38">
</g>
<g
   id="g40">
</g>
<g
   id="g42">
</g>
<path
   style="fill:#a1e3d8;fill-opacity:1;stroke-width:28.7936;stroke-dasharray:691.047, 28.7936;paint-order:markers fill stroke"
   d="M 101.6415,270.37214 V 256.5512 h 23.0349 23.03489 v 13.82094 13.82094 H 124.6764 101.6415 Z"
   id="path1625" /><path
   style="fill:#a1e3d8;fill-opacity:1;stroke-width:28.7936;stroke-dasharray:691.047, 28.7936;paint-order:markers fill stroke"
   d="M 163.25985,270.37214 V 256.5512 h 22.74697 22.74696 v 13.82094 13.82094 h -22.74696 -22.74697 z"
   id="path1664" /><path
   style="fill:#a1e3d8;fill-opacity:1;stroke-width:28.7936;stroke-dasharray:691.047, 28.7936;paint-order:markers fill stroke"
   d="M 224.87821,270.37214 V 256.5512 h 22.74696 22.74697 v 13.82094 13.82094 h -22.74697 -22.74696 z"
   id="path1703" /><path
   style="fill:#a1e3d8;fill-opacity:1;stroke-width:28.7936;stroke-dasharray:691.047, 28.7936;paint-order:markers fill stroke"
   d="m 193.78109,227.46964 v -13.53301 h 23.0349 23.0349 v 13.53301 13.533 h -23.0349 -23.0349 z"
   id="path1742" /><path
   style="fill:#a1e3d8;fill-opacity:1;stroke-width:28.7936;stroke-dasharray:691.047, 28.7936;paint-order:markers fill stroke"
   d="m 132.16274,313.27464 v -13.53301 h 23.0349 23.0349 v 13.53301 13.533 h -23.0349 -23.0349 z"
   id="path1781" /><path
   style="fill:#a1e3d8;fill-opacity:1;stroke-width:28.7936;stroke-dasharray:691.047, 28.7936;paint-order:markers fill stroke"
   d="m 193.78109,313.27464 v -13.53301 h 23.0349 23.0349 v 13.53301 13.533 h -23.0349 -23.0349 z"
   id="path1820" /><path
   style="fill:#a1e3d8;fill-opacity:1;stroke-width:28.7936;stroke-dasharray:691.047, 28.7936;paint-order:markers fill stroke"
   d="m 255.39945,227.46964 v -13.53301 h 23.0349 23.0349 v 13.53301 13.533 h -23.0349 -23.0349 z"
   id="path1859" /><path
   style="fill:#a1e3d8;fill-opacity:1;stroke-width:28.7936;stroke-dasharray:691.047, 28.7936;paint-order:markers fill stroke"
   d="m 132.16274,227.46964 v -13.53301 h 23.0349 23.0349 v 13.53301 13.533 h -23.0349 -23.0349 z"
   id="path1898" /><path
   style="fill:#a1e3d8;fill-opacity:1;stroke-width:28.7936;stroke-dasharray:691.047, 28.7936;paint-order:markers fill stroke"
   d="m 71.120253,227.46964 v -13.53301 h 22.746964 22.746963 v 13.53301 13.533 H 93.867217 71.120253 Z"
   id="path1937" /><path
   style="fill:#069a8e;fill-opacity:1;stroke-width:28.7936;stroke-dasharray:691.047, 28.7936;paint-order:markers fill stroke"
   d="m 285.92069,184.56713 v -13.82094 h 23.0349 23.0349 v 13.82094 13.82094 h -23.0349 -23.0349 z"
   id="path2013" /><path
   style="fill:#069a8e;fill-opacity:1;stroke-width:28.7936;stroke-dasharray:691.047, 28.7936;paint-order:markers fill stroke"
   d="m 224.87821,184.56713 v -13.82094 h 22.74696 22.74697 v 13.82094 13.82094 h -22.74697 -22.74696 z"
   id="path2052" /><path
   style="fill:#069a8e;fill-opacity:1;stroke-width:28.7936;stroke-dasharray:691.047, 28.7936;paint-order:markers fill stroke"
   d="m 163.25985,184.56713 v -13.82094 h 22.74697 22.74696 v 13.82094 13.82094 h -22.74696 -22.74697 z"
   id="path2091" /><path
   style="fill:#069a8e;fill-opacity:1;stroke-width:28.7936;stroke-dasharray:691.047, 28.7936;paint-order:markers fill stroke"
   d="m 101.6415,184.56713 v -13.82094 h 23.0349 23.03489 v 13.82094 13.82094 H 124.6764 101.6415 Z"
   id="path2130" /><path
   style="fill:#069a8e;fill-opacity:1;stroke-width:28.7936;stroke-dasharray:691.047, 28.7936;paint-order:markers fill stroke"
   d="m 40.023138,184.56713 v -13.82094 h 23.0349 23.0349 v 13.82094 13.82094 h -23.0349 -23.0349 z"
   id="path2169" /><path
   style="fill:#069a8e;fill-opacity:1;stroke-width:28.7936;stroke-dasharray:691.047, 28.7936;paint-order:markers fill stroke"
   d="m 40.023138,227.46964 v -13.53301 h 7.774279 7.774279 v 13.53301 13.533 h -7.774279 -7.774279 z"
   id="path2208" /><path
   style="fill:#069a8e;fill-opacity:1;stroke-width:28.7936;stroke-dasharray:691.047, 28.7936;paint-order:markers fill stroke"
   d="M 40.023138,270.37214 V 256.5512 h 23.0349 23.0349 v 13.82094 13.82094 h -23.0349 -23.0349 z"
   id="path2247" /><path
   style="fill:#069a8e;fill-opacity:1;stroke-width:28.7936;stroke-dasharray:691.047, 28.7936;paint-order:markers fill stroke"
   d="m 40.023138,313.27464 v -13.53301 h 7.774279 7.774279 v 13.53301 13.533 h -7.774279 -7.774279 z"
   id="path2286" /><path
   style="fill:#069a8e;fill-opacity:1;stroke-width:28.7936;stroke-dasharray:691.047, 28.7936;paint-order:markers fill stroke"
   d="m 71.120253,313.27464 v -13.53301 h 22.746964 22.746963 v 13.53301 13.533 H 93.867217 71.120253 Z"
   id="path2325" /><path
   style="fill:#069a8e;fill-opacity:1;stroke-width:28.7936;stroke-dasharray:691.047, 28.7936;paint-order:markers fill stroke"
   d="m 255.39945,313.27464 v -13.53301 h 23.0349 23.0349 v 13.53301 13.533 h -23.0349 -23.0349 z"
   id="path2364" /><path
   style="fill:#069a8e;fill-opacity:1;stroke-width:28.7936;stroke-dasharray:691.047, 28.7936;paint-order:markers fill stroke"
   d="m 317.01781,313.27464 v -13.53301 h 22.74696 22.74697 v 13.53301 13.533 h -22.74697 -22.74696 z"
   id="path2403" /><path
   style="fill:#069a8e;fill-opacity:1;stroke-width:28.7936;stroke-dasharray:691.047, 28.7936;paint-order:markers fill stroke"
   d="m 378.06029,313.27464 v -13.53301 h 7.77428 7.77428 v 13.53301 13.533 h -7.77428 -7.77428 z"
   id="path2442" /><path
   style="fill:#069a8e;fill-opacity:1;stroke-width:28.7936;stroke-dasharray:691.047, 28.7936;paint-order:markers fill stroke"
   d="M 347.53905,270.37214 V 256.5512 l 5.61476,-0.002 c 4.55263,-0.002 5.96351,-0.2148 7.45838,-1.12628 3.55344,-2.16668 3.62716,-2.63477 3.62716,-23.02964 v -18.45652 h 14.68475 14.68475 v 35.12822 35.12823 h -23.0349 -23.0349 z"
   id="path2481" /><path
   style="fill:#069a8e;fill-opacity:1;stroke-width:28.7936;stroke-dasharray:691.047, 28.7936;paint-order:markers fill stroke"
   d="M 285.92069,270.37214 V 256.5512 h 23.0349 23.0349 v 13.82094 13.82094 h -23.0349 -23.0349 z"
   id="path2520" /><path
   style="fill:#069a8e;fill-opacity:1;stroke-width:28.7936;stroke-dasharray:691.047, 28.7936;paint-order:markers fill stroke"
   d="m 317.01781,227.46964 v -13.53301 h 15.83649 15.8365 v 13.53301 13.533 h -15.8365 -15.83649 z"
   id="path2559" /><path
   style="fill:#069a8e;fill-opacity:1;stroke-width:28.7936;stroke-dasharray:691.047, 28.7936;paint-order:markers fill stroke"
   d="m 347.53905,184.56713 v -13.82094 h 23.0349 23.0349 v 13.82094 13.82094 h -23.0349 -23.0349 z"
   id="path2598" /><path
   style="fill:#ffeeaa;fill-opacity:1;stroke-width:28.7936;stroke-dasharray:691.047, 28.7936;paint-order:markers fill stroke"
   d="m 18.900703,351.21698 c -3.908254,-1.92739 -3.640082,5.6175 -3.640082,-102.41172 0,-107.35607 -0.246485,-100.04354 3.436385,-101.94803 1.500267,-0.77581 23.666945,-0.87355 198.118984,-0.87355 174.45205,0 196.61873,0.0977 198.11899,0.87355 3.68287,1.90449 3.43639,-5.40804 3.43639,101.94803 0,108.29452 0.28287,100.52788 -3.73073,102.43246 -1.73164,0.82172 -20.59955,0.90706 -197.91168,0.8952 C 39.923703,352.12109 20.552145,352.0314 18.900703,351.21698 Z m 386.202657,-9.80264 c 0.87695,-0.51803 2.08307,-1.74896 2.68028,-2.7354 1.05133,-1.73654 1.08583,-4.59647 1.08583,-90.00378 V 160.4649 l -1.19268,-1.62585 c -0.65597,-0.89422 -2.08126,-2.07896 -3.1673,-2.63274 -1.86783,-0.95243 -12.01807,-1.00688 -187.6935,-1.00688 -175.675418,0 -185.82566,0.0545 -187.693493,1.00688 -1.08604,0.55378 -2.511324,1.73852 -3.167299,2.63274 l -1.192681,1.62585 v 88.21026 c 0,85.1953 0.03686,88.27112 1.078497,89.99137 0.593172,0.97961 1.759314,2.20363 2.591426,2.72007 1.390388,0.8629 16.641536,0.94019 188.2947,0.95427 171.89096,0.0141 186.90889,-0.0598 188.37622,-0.92653 z"
   id="path2674" /></svg>
